<?xml version="1.0" encoding="UTF-8" standalone="no"?>
<!DOCTYPE svg PUBLIC "-//W3C//DTD SVG 1.1//EN"
 "http://www.w3.org/Graphics/SVG/1.1/DTD/svg11.dtd">
<!-- Generated by graphviz version 10.0.1 (20240210.2158)
 -->
<!-- Title: hand_breaker Pages: 1 -->
<svg width="1038pt" height="642pt"
 viewBox="0.00 0.00 1037.50 641.75" xmlns="http://www.w3.org/2000/svg" xmlns:xlink="http://www.w3.org/1999/xlink">
<g id="graph0" class="graph" transform="scale(1 1) rotate(0) translate(4 637.75)">
<title>hand_breaker</title>
<polygon fill="white" stroke="none" points="-4,4 -4,-637.75 1033.5,-637.75 1033.5,4 -4,4"/>
<text text-anchor="middle" x="514.75" y="-6.45" font-family="Times New Roman,serif" font-size="14.00">hand_breaker</text>
<g id="clust1" class="cluster">
<title>esp32</title>
<g id="a_clust1"><a xlink:href="https://www.espressif.com/sites/default/files/documentation/esp32-s3_datasheet_en.pdf" xlink:title="ESP32_DEV&#10;FREENOVE&#10;ESP32 S3">
<polygon fill="none" stroke="black" points="310,-31.75 310,-465.75 483,-465.75 483,-31.75 310,-31.75"/>
<text text-anchor="middle" x="396.5" y="-448.45" font-family="Times New Roman,serif" font-size="14.00">ESP32_DEV</text>
<text text-anchor="middle" x="396.5" y="-432.7" font-family="Times New Roman,serif" font-size="14.00">FREENOVE</text>
<text text-anchor="middle" x="396.5" y="-416.95" font-family="Times New Roman,serif" font-size="14.00">ESP32 S3</text>
</a>
</g>
</g>
<g id="clust2" class="cluster">
<title>TCA9548A</title>
<polygon fill="none" stroke="black" points="609.25,-363.75 609.25,-453.75 733.25,-453.75 733.25,-363.75 609.25,-363.75"/>
<text text-anchor="middle" x="671.25" y="-436.45" font-family="Times New Roman,serif" font-size="14.00">TCA9548A</text>
</g>
<g id="clust3" class="cluster">
<title>I2C_slaves</title>
<polygon fill="none" stroke="black" points="859.5,-224.75 859.5,-625.75 1021.5,-625.75 1021.5,-224.75 859.5,-224.75"/>
<text text-anchor="middle" x="940.5" y="-608.45" font-family="Times New Roman,serif" font-size="14.00">I2C_slaves</text>
</g>
<g id="clust4" class="cluster">
<title>TP4056_cl</title>
<polygon fill="none" stroke="black" points="8,-115.75 8,-273.75 293,-273.75 293,-115.75 8,-115.75"/>
<text text-anchor="middle" x="150.5" y="-256.45" font-family="Times New Roman,serif" font-size="14.00">TP4056</text>
</g>
<g id="clust5" class="cluster">
<title>buck_boost_DC_DC</title>
<polygon fill="none" stroke="black" points="87.5,-31.75 87.5,-107.75 214.5,-107.75 214.5,-31.75 87.5,-31.75"/>
<text text-anchor="middle" x="151" y="-90.45" font-family="Times New Roman,serif" font-size="14.00">buck&#45;boost DC&#45;DC</text>
</g>
<!-- i2c -->
<g id="node1" class="node">
<title>i2c</title>
<polygon fill="none" stroke="black" points="362.5,-360.25 362.5,-401.25 393.5,-401.25 393.5,-360.25 362.5,-360.25"/>
<text text-anchor="start" x="367.5" y="-375.32" font-family="Times New Roman,serif" font-size="14.00">I2C</text>
<polygon fill="none" stroke="black" points="393.5,-360.25 393.5,-401.25 430.5,-401.25 430.5,-360.25 393.5,-360.25"/>
<text text-anchor="start" x="398.12" y="-382.95" font-family="Times New Roman,serif" font-size="14.00">SDA</text>
<text text-anchor="start" x="398.88" y="-367.2" font-family="Times New Roman,serif" font-size="14.00">SCL</text>
</g>
<!-- TCA -->
<g id="node5" class="node">
<title>TCA</title>
<polygon fill="none" stroke="black" points="634.38,-379 634.38,-420.5 708.12,-420.5 708.12,-379 634.38,-379"/>
<text text-anchor="start" x="639.38" y="-402.2" font-family="Times New Roman,serif" font-size="14.00">SDA_TCA</text>
<text text-anchor="start" x="640.12" y="-386.45" font-family="Times New Roman,serif" font-size="14.00">SCL_TCA</text>
</g>
<!-- i2c&#45;&gt;TCA -->
<g id="edge1" class="edge">
<title>i2c:I2C_chnl&#45;&gt;TCA:TCA_chnl</title>
<path fill="none" stroke="black" d="M431.5,-377.75C499.47,-377.75 577.98,-385.5 625.86,-391.1"/>
<ellipse fill="black" stroke="black" cx="630.26" cy="-391.62" rx="4" ry="4"/>
<text text-anchor="middle" x="546.12" y="-390.2" font-family="Times New Roman,serif" font-size="14.00">2x{10k, 4.7k, 2.2k}</text>
</g>
<!-- pwr -->
<g id="node2" class="node">
<title>pwr</title>
<polygon fill="none" stroke="black" points="380.62,-49 380.62,-74.75 412.38,-74.75 412.38,-49 380.62,-49"/>
<text text-anchor="start" x="385.62" y="-56.45" font-family="Times New Roman,serif" font-size="14.00">pwr</text>
</g>
<!-- interrupt -->
<g id="node3" class="node">
<title>interrupt</title>
<polygon fill="none" stroke="black" points="450.5,-345.75 342.5,-345.75 342.5,-309.75 450.5,-309.75 450.5,-345.75"/>
<text text-anchor="middle" x="396.5" y="-322.32" font-family="Times New Roman,serif" font-size="14.00">Interrupt PIN 19</text>
</g>
<!-- interrupt&#45;&gt;i2c -->
<!-- I2C_slaves -->
<g id="node6" class="node">
<title>I2C_slaves</title>
<polygon fill="none" stroke="black" points="875.5,-527.25 875.5,-593.25 929.5,-593.25 929.5,-527.25 875.5,-527.25"/>
<text text-anchor="start" x="880.38" y="-554.83" font-family="Times New Roman,serif" font-size="14.00">MPU_0</text>
<polygon fill="none" stroke="black" points="929.5,-552.25 929.5,-593.25 1005.5,-593.25 1005.5,-552.25 929.5,-552.25"/>
<text text-anchor="start" x="934.5" y="-574.95" font-family="Times New Roman,serif" font-size="14.00">SDA_SL_0</text>
<text text-anchor="start" x="935.25" y="-559.2" font-family="Times New Roman,serif" font-size="14.00">SCL_SL_0</text>
<polygon fill="none" stroke="black" points="929.5,-527.25 929.5,-552.25 1005.5,-552.25 1005.5,-527.25 929.5,-527.25"/>
<text text-anchor="start" x="943.5" y="-533.95" font-family="Times New Roman,serif" font-size="14.00">Interrupt</text>
<polygon fill="none" stroke="black" points="875.5,-486.25 875.5,-527.25 929.5,-527.25 929.5,-486.25 875.5,-486.25"/>
<text text-anchor="start" x="880.38" y="-501.32" font-family="Times New Roman,serif" font-size="14.00">MPU_1</text>
<polygon fill="none" stroke="black" points="929.5,-486.25 929.5,-527.25 1005.5,-527.25 1005.5,-486.25 929.5,-486.25"/>
<text text-anchor="start" x="934.5" y="-508.95" font-family="Times New Roman,serif" font-size="14.00">SDA_SL_1</text>
<text text-anchor="start" x="935.25" y="-493.2" font-family="Times New Roman,serif" font-size="14.00">SCL_SL_1</text>
<polygon fill="none" stroke="black" points="875.5,-445.25 875.5,-486.25 929.5,-486.25 929.5,-445.25 875.5,-445.25"/>
<text text-anchor="start" x="880.38" y="-460.32" font-family="Times New Roman,serif" font-size="14.00">MPU_2</text>
<polygon fill="none" stroke="black" points="929.5,-445.25 929.5,-486.25 1005.5,-486.25 1005.5,-445.25 929.5,-445.25"/>
<text text-anchor="start" x="934.5" y="-467.95" font-family="Times New Roman,serif" font-size="14.00">SDA_SL_2</text>
<text text-anchor="start" x="935.25" y="-452.2" font-family="Times New Roman,serif" font-size="14.00">SCL_SL_2</text>
<polygon fill="none" stroke="black" points="875.5,-404.25 875.5,-445.25 929.5,-445.25 929.5,-404.25 875.5,-404.25"/>
<text text-anchor="start" x="880.38" y="-419.32" font-family="Times New Roman,serif" font-size="14.00">MPU_3</text>
<polygon fill="none" stroke="black" points="929.5,-404.25 929.5,-445.25 1005.5,-445.25 1005.5,-404.25 929.5,-404.25"/>
<text text-anchor="start" x="934.5" y="-426.95" font-family="Times New Roman,serif" font-size="14.00">SDA_SL_3</text>
<text text-anchor="start" x="935.25" y="-411.2" font-family="Times New Roman,serif" font-size="14.00">SCL_SL_3</text>
<polygon fill="none" stroke="black" points="875.5,-363.25 875.5,-404.25 929.5,-404.25 929.5,-363.25 875.5,-363.25"/>
<text text-anchor="start" x="880.38" y="-378.32" font-family="Times New Roman,serif" font-size="14.00">MPU_4</text>
<polygon fill="none" stroke="black" points="929.5,-363.25 929.5,-404.25 1005.5,-404.25 1005.5,-363.25 929.5,-363.25"/>
<text text-anchor="start" x="934.5" y="-385.95" font-family="Times New Roman,serif" font-size="14.00">SDA_SL_4</text>
<text text-anchor="start" x="935.25" y="-370.2" font-family="Times New Roman,serif" font-size="14.00">SCL_SL_4</text>
<polygon fill="none" stroke="black" points="875.5,-322.25 875.5,-363.25 929.5,-363.25 929.5,-322.25 875.5,-322.25"/>
<text text-anchor="start" x="880.38" y="-337.32" font-family="Times New Roman,serif" font-size="14.00">MPU_5</text>
<polygon fill="none" stroke="black" points="929.5,-322.25 929.5,-363.25 1005.5,-363.25 1005.5,-322.25 929.5,-322.25"/>
<text text-anchor="start" x="934.5" y="-344.95" font-family="Times New Roman,serif" font-size="14.00">SDA_SL_5</text>
<text text-anchor="start" x="935.25" y="-329.2" font-family="Times New Roman,serif" font-size="14.00">SCL_SL_5</text>
<polygon fill="none" stroke="black" points="875.5,-281.25 875.5,-322.25 929.5,-322.25 929.5,-281.25 875.5,-281.25"/>
<text text-anchor="start" x="880.38" y="-296.32" font-family="Times New Roman,serif" font-size="14.00">MPU_6</text>
<polygon fill="none" stroke="black" points="929.5,-281.25 929.5,-322.25 1005.5,-322.25 1005.5,-281.25 929.5,-281.25"/>
<text text-anchor="start" x="934.5" y="-303.95" font-family="Times New Roman,serif" font-size="14.00">SDA_SL_6</text>
<text text-anchor="start" x="935.25" y="-288.2" font-family="Times New Roman,serif" font-size="14.00">SCL_SL_6</text>
<polygon fill="none" stroke="black" points="875.5,-240.25 875.5,-281.25 929.5,-281.25 929.5,-240.25 875.5,-240.25"/>
<text text-anchor="start" x="880.38" y="-255.32" font-family="Times New Roman,serif" font-size="14.00">MPU_7</text>
<polygon fill="none" stroke="black" points="929.5,-240.25 929.5,-281.25 1005.5,-281.25 1005.5,-240.25 929.5,-240.25"/>
<text text-anchor="start" x="934.5" y="-262.95" font-family="Times New Roman,serif" font-size="14.00">SDA_SL_7</text>
<text text-anchor="start" x="935.25" y="-247.2" font-family="Times New Roman,serif" font-size="14.00">SCL_SL_7</text>
</g>
<!-- interrupt&#45;&gt;I2C_slaves -->
<g id="edge3" class="edge">
<title>interrupt:e&#45;&gt;I2C_slaves:w</title>
<path fill="none" stroke="black" d="M451.5,-327.75C629.34,-327.75 706.45,-213.84 851.5,-316.75 933.43,-374.88 831.45,-527.15 919.67,-536.32"/>
<ellipse fill="black" stroke="black" cx="924.01" cy="-536.53" rx="4" ry="4"/>
</g>
<!-- GPIO -->
<g id="node4" class="node">
<title>GPIO</title>
<polygon fill="none" stroke="black" points="326,-86.75 326,-300.75 406,-300.75 406,-86.75 326,-86.75"/>
<text text-anchor="start" x="330.75" y="-282.45" font-family="Times New Roman,serif" font-size="14.00">flex_sensors</text>
<polygon fill="none" stroke="black" points="406,-86.75 406,-300.75 467,-300.75 467,-86.75 406,-86.75"/>
<text text-anchor="start" x="411" y="-282.45" font-family="Times New Roman,serif" font-size="14.00">GPIO 36</text>
<text text-anchor="start" x="411" y="-266.7" font-family="Times New Roman,serif" font-size="14.00">GPIO 39</text>
<text text-anchor="start" x="411" y="-250.95" font-family="Times New Roman,serif" font-size="14.00">GPIO 34</text>
<text text-anchor="start" x="411" y="-235.2" font-family="Times New Roman,serif" font-size="14.00">GPIO 35</text>
<text text-anchor="start" x="411" y="-219.45" font-family="Times New Roman,serif" font-size="14.00">GPIO 32</text>
<text text-anchor="start" x="411" y="-203.7" font-family="Times New Roman,serif" font-size="14.00">GPIO 33</text>
<text text-anchor="start" x="411" y="-187.95" font-family="Times New Roman,serif" font-size="14.00">GPIO 25</text>
<text text-anchor="start" x="411" y="-172.2" font-family="Times New Roman,serif" font-size="14.00">GPIO 26</text>
<text text-anchor="start" x="411" y="-156.45" font-family="Times New Roman,serif" font-size="14.00">GPIO 27</text>
<text text-anchor="start" x="411" y="-140.7" font-family="Times New Roman,serif" font-size="14.00">GPIO 14</text>
<text text-anchor="start" x="411" y="-124.95" font-family="Times New Roman,serif" font-size="14.00">GPIO 13</text>
<text text-anchor="start" x="411" y="-109.2" font-family="Times New Roman,serif" font-size="14.00">GPIO 12</text>
<text text-anchor="start" x="411" y="-93.45" font-family="Times New Roman,serif" font-size="14.00">GPIO 23</text>
</g>
<!-- GPIO&#45;&gt;interrupt -->
<!-- TCA&#45;&gt;I2C_slaves -->
<g id="edge2" class="edge">
<title>TCA:e&#45;&gt;I2C_slaves:MPU_0</title>
<path fill="none" stroke="black" d="M709.25,-396.75C762.73,-396.75 704.52,-473.88 741.25,-512.75 782.09,-555.96 809.24,-557.68 865.59,-557.75"/>
<ellipse fill="black" stroke="black" cx="870" cy="-557.75" rx="4" ry="4"/>
<text text-anchor="middle" x="796.38" y="-559.2" font-family="Times New Roman,serif" font-size="14.00">2x{10k, 4.7k, 2.2k}</text>
</g>
<!-- TCA&#45;&gt;I2C_slaves -->
<g id="edge4" class="edge">
<title>TCA:e&#45;&gt;I2C_slaves:MPU_1</title>
<path fill="none" stroke="black" d="M709.25,-396.75C745.49,-396.75 713.35,-448.63 741.25,-471.75 779.88,-503.76 803.16,-482.58 851.5,-496 858.32,-497.89 861.45,-500.64 865.84,-502.3"/>
<ellipse fill="black" stroke="black" cx="870.06" cy="-503.01" rx="4" ry="4"/>
<text text-anchor="middle" x="796.38" y="-498.2" font-family="Times New Roman,serif" font-size="14.00">2x{10k, 4.7k, 2.2k}</text>
</g>
<!-- TCA&#45;&gt;I2C_slaves -->
<g id="edge5" class="edge">
<title>TCA:e&#45;&gt;I2C_slaves:MPU_2</title>
<path fill="none" stroke="black" d="M709.25,-396.75C732.72,-396.75 721.04,-426.83 741.25,-438.75 783.91,-463.92 803.34,-443.44 851.5,-455 858.38,-456.65 861.49,-459.47 865.86,-461.22"/>
<ellipse fill="black" stroke="black" cx="870.07" cy="-461.96" rx="4" ry="4"/>
<text text-anchor="middle" x="796.38" y="-457.2" font-family="Times New Roman,serif" font-size="14.00">2x{10k, 4.7k, 2.2k}</text>
</g>
<!-- TCA&#45;&gt;I2C_slaves -->
<g id="edge6" class="edge">
<title>TCA:e&#45;&gt;I2C_slaves:MPU_3</title>
<path fill="none" stroke="black" d="M709.25,-396.75C725.35,-396.75 725.75,-409.39 741.25,-413.75 767.35,-421.09 832.28,-421.7 865.91,-421.75"/>
<ellipse fill="black" stroke="black" cx="870" cy="-421.75" rx="4" ry="4"/>
<text text-anchor="middle" x="796.38" y="-423.2" font-family="Times New Roman,serif" font-size="14.00">2x{10k, 4.7k, 2.2k}</text>
</g>
<!-- TCA&#45;&gt;I2C_slaves -->
<g id="edge7" class="edge">
<title>TCA:e&#45;&gt;I2C_slaves:MPU_4</title>
<path fill="none" stroke="black" d="M709.25,-396.75C740.91,-396.75 820.44,-394.9 851.5,-388.75 858.47,-387.37 861.53,-384.36 865.88,-382.45"/>
<ellipse fill="black" stroke="black" cx="870.08" cy="-381.62" rx="4" ry="4"/>
<text text-anchor="middle" x="796.38" y="-398.2" font-family="Times New Roman,serif" font-size="14.00">2x{10k, 4.7k, 2.2k}</text>
</g>
<!-- TCA&#45;&gt;I2C_slaves -->
<g id="edge8" class="edge">
<title>TCA:e&#45;&gt;I2C_slaves:MPU_5</title>
<path fill="none" stroke="black" d="M709.25,-396.75C727.23,-396.75 724.46,-378.44 741.25,-372 787.12,-354.39 807.06,-384.71 851.5,-363.75 861.31,-359.12 861.15,-348.35 866.22,-342.95"/>
<ellipse fill="black" stroke="black" cx="870.3" cy="-341.37" rx="4" ry="4"/>
<text text-anchor="middle" x="796.38" y="-374.2" font-family="Times New Roman,serif" font-size="14.00">2x{10k, 4.7k, 2.2k}</text>
</g>
<!-- TCA&#45;&gt;I2C_slaves -->
<g id="edge9" class="edge">
<title>TCA:e&#45;&gt;I2C_slaves:MPU_6</title>
<path fill="none" stroke="black" d="M709.25,-396.75C735.54,-396.75 718.66,-360.45 741.25,-347 762.36,-334.43 830.71,-351.84 851.5,-338.75 865.6,-329.87 858.43,-309.02 866.25,-301.51"/>
<ellipse fill="black" stroke="black" cx="870.23" cy="-300.18" rx="4" ry="4"/>
<text text-anchor="middle" x="796.38" y="-349.2" font-family="Times New Roman,serif" font-size="14.00">2x{10k, 4.7k, 2.2k}</text>
</g>
<!-- TCA&#45;&gt;I2C_slaves -->
<g id="edge10" class="edge">
<title>TCA:e&#45;&gt;I2C_slaves:MPU_7</title>
<path fill="none" stroke="black" d="M709.25,-396.75C745.39,-396.75 711.85,-343.01 741.25,-322 761.24,-307.71 831.62,-328.18 851.5,-313.75 870.21,-300.17 853.88,-268.57 865.99,-259.95"/>
<ellipse fill="black" stroke="black" cx="870.14" cy="-258.88" rx="4" ry="4"/>
<text text-anchor="middle" x="796.38" y="-324.2" font-family="Times New Roman,serif" font-size="14.00">2x{10k, 4.7k, 2.2k}</text>
</g>
<!-- TP4056 -->
<g id="node7" class="node">
<title>TP4056</title>
<polygon fill="none" stroke="black" points="24,-130.75 24,-240.75 70,-240.75 70,-130.75 24,-130.75"/>
<text text-anchor="start" x="28.62" y="-180.32" font-family="Times New Roman,serif" font-size="14.00">BAZA</text>
<polygon fill="none" stroke="black" points="70,-215.75 70,-240.75 277,-240.75 277,-215.75 70,-215.75"/>
<text text-anchor="start" x="164.88" y="-222.45" font-family="Times New Roman,serif" font-size="14.00">B+</text>
<polygon fill="none" stroke="black" points="70,-155.75 70,-215.75 277,-215.75 277,-155.75 70,-155.75"/>
<polygon fill="none" stroke="black" points="75,-160.75 75,-210.75 116,-210.75 116,-160.75 75,-160.75"/>
<text text-anchor="start" x="79.75" y="-180.32" font-family="Times New Roman,serif" font-size="14.00">EDIT</text>
<polygon fill="none" stroke="black" points="116,-185.75 116,-210.75 272,-210.75 272,-185.75 116,-185.75"/>
<text text-anchor="start" x="134" y="-192.45" font-family="Times New Roman,serif" font-size="14.00">PMOSFET Vg&lt;0.4V</text>
<polygon fill="none" stroke="black" points="116,-160.75 116,-185.75 272,-185.75 272,-160.75 116,-160.75"/>
<text text-anchor="start" x="120.88" y="-167.45" font-family="Times New Roman,serif" font-size="14.00">Pull&#45;down gate R=10kOm</text>
<polygon fill="none" stroke="black" points="70,-130.75 70,-155.75 277,-155.75 277,-130.75 70,-130.75"/>
<text text-anchor="start" x="154.75" y="-137.45" font-family="Times New Roman,serif" font-size="14.00">OUT+</text>
</g>
<!-- STBB1 -->
<g id="node8" class="node">
<title>STBB1</title>
<polygon fill="none" stroke="black" points="103.5,-49 103.5,-74.75 197.5,-74.75 197.5,-49 103.5,-49"/>
<text text-anchor="start" x="108.5" y="-56.45" font-family="Times New Roman,serif" font-size="14.00">STBB1&#45;APUR</text>
</g>
<!-- TP4056&#45;&gt;STBB1 -->
<g id="edge11" class="edge">
<title>TP4056&#45;&gt;STBB1</title>
<path fill="none" stroke="black" d="M191.6,-124C192.72,-109.93 187.56,-95.86 176.13,-81.79"/>
<ellipse fill="black" stroke="black" cx="173.41" cy="-78.71" rx="4" ry="4"/>
</g>
<!-- TP4056&#45;&gt;STBB1 -->
<!-- STBB1&#45;&gt;pwr -->
<g id="edge12" class="edge">
<title>STBB1&#45;&gt;pwr:pwr</title>
<path fill="none" stroke="black" d="M205.35,-57.75C257.36,-57.75 333.7,-57.75 371.9,-57.75"/>
<ellipse fill="black" stroke="black" cx="376.25" cy="-57.75" rx="4" ry="4"/>
</g>
</g>
</svg>
