<?xml version="1.0" encoding="UTF-8" standalone="no"?>
<!DOCTYPE svg PUBLIC "-//W3C//DTD SVG 1.1//EN"
 "http://www.w3.org/Graphics/SVG/1.1/DTD/svg11.dtd">
<!-- Generated by graphviz version 10.0.1 (20240210.2158)
 -->
<!-- Title: sch21 Pages: 1 -->
<svg width="1503pt" height="1147pt"
 viewBox="0.00 0.00 1503.28 1146.75" xmlns="http://www.w3.org/2000/svg" xmlns:xlink="http://www.w3.org/1999/xlink">
<g id="graph0" class="graph" transform="scale(1 1) rotate(0) translate(4 1142.75)">
<title>sch21</title>
<polygon fill="white" stroke="none" points="-4,4 -4,-1142.75 1499.28,-1142.75 1499.28,4 -4,4"/>
<text text-anchor="middle" x="747.64" y="-6.45" font-family="Times New Roman,serif" font-size="14.00">Black Box solving ???</text>
<g id="clust1" class="cluster">
<title>clusterINPUT</title>
<polygon fill="grey" stroke="black" points="110.28,-31.75 110.28,-1094.75 561.78,-1094.75 561.78,-31.75 110.28,-31.75"/>
<text text-anchor="middle" x="336.03" y="-1077.45" font-family="Times New Roman,serif" font-size="14.00">INPUT</text>
</g>
<g id="clust2" class="cluster">
<title>clusterPart3</title>
<polygon fill="red" stroke="black" points="118.28,-39.75 118.28,-255.75 553.78,-255.75 553.78,-39.75 118.28,-39.75"/>
<text text-anchor="middle" x="336.03" y="-238.45" font-family="Times New Roman,serif" font-size="14.00">Part 3</text>
</g>
<g id="clust3" class="cluster">
<title>clusterPart2</title>
<polygon fill="red" stroke="black" points="152.03,-263.75 152.03,-572.75 520.03,-572.75 520.03,-263.75 152.03,-263.75"/>
<text text-anchor="middle" x="336.03" y="-555.45" font-family="Times New Roman,serif" font-size="14.00">Part 2</text>
</g>
<g id="clust4" class="cluster">
<title>clusterPart1</title>
<g id="a_clust4"><a xlink:href="https://edu.21-school.ru/project/69103/task" xlink:title="Part 1">
<polygon fill="red" stroke="black" points="140.41,-580.75 140.41,-790.75 531.66,-790.75 531.66,-580.75 140.41,-580.75"/>
<text text-anchor="middle" x="336.03" y="-773.45" font-family="Times New Roman,serif" font-size="14.00">Part 1</text>
</a>
</g>
</g>
<g id="clust5" class="cluster">
<title>clusterMAGIC</title>
<polygon fill="orange" stroke="black" points="674.53,-143.75 674.53,-1036.75 1238.53,-1036.75 1238.53,-143.75 674.53,-143.75"/>
<text text-anchor="middle" x="956.53" y="-1019.45" font-family="Times New Roman,serif" font-size="14.00">MAGIC</text>
</g>
<g id="clust6" class="cluster">
<title>clusterPart3_sol</title>
<polygon fill="green" stroke="black" points="682.53,-151.75 682.53,-274.75 1230.53,-274.75 1230.53,-151.75 682.53,-151.75"/>
<text text-anchor="middle" x="956.53" y="-257.45" font-family="Times New Roman,serif" font-size="14.00">Part 3</text>
</g>
<g id="clust7" class="cluster">
<title>clusterPart2_sol</title>
<polygon fill="green" stroke="black" points="690.03,-282.75 690.03,-478.75 1223.03,-478.75 1223.03,-282.75 690.03,-282.75"/>
<text text-anchor="middle" x="956.53" y="-461.45" font-family="Times New Roman,serif" font-size="14.00">Part 2</text>
</g>
<g id="clust8" class="cluster">
<title>clusterPart1_sol</title>
<polygon fill="green" stroke="black" points="802.41,-486.75 802.41,-960.75 1110.66,-960.75 1110.66,-486.75 802.41,-486.75"/>
<text text-anchor="middle" x="956.53" y="-943.45" font-family="Times New Roman,serif" font-size="14.00">Part 1</text>
</g>
<g id="clust9" class="cluster">
<title>clusterOUTPUT</title>
<polygon fill="red" stroke="black" points="1358.53,-978.75 1358.53,-1094.75 1487.28,-1094.75 1487.28,-978.75 1358.53,-978.75"/>
<text text-anchor="middle" x="1422.91" y="-1077.45" font-family="Times New Roman,serif" font-size="14.00">OUTPUT</text>
</g>
<!-- a -->
<g id="node1" class="node">
<title>a</title>
<polygon fill="red" stroke="none" points="546.53,-1022.75 125.53,-1022.75 125.53,-798.75 546.53,-798.75 546.53,-1022.75"/>
<polygon fill="none" stroke="black" points="133.53,-893.75 133.53,-1018.75 247.53,-1018.75 247.53,-893.75 133.53,-893.75"/>
<text text-anchor="start" x="138.41" y="-950.83" font-family="Times New Roman,serif" font-size="14.00">структура &quot;maze&quot;</text>
<polygon fill="none" stroke="black" points="247.53,-993.75 247.53,-1018.75 538.53,-1018.75 538.53,-993.75 247.53,-993.75"/>
<text text-anchor="start" x="349.91" y="-1000.45" font-family="Times New Roman,serif" font-size="14.00">таблица n x m </text>
<polygon fill="none" stroke="black" points="247.53,-968.75 247.53,-993.75 538.53,-993.75 538.53,-968.75 247.53,-968.75"/>
<text text-anchor="start" x="271.16" y="-975.45" font-family="Times New Roman,serif" font-size="14.00">стены вокруг самого &quot;maze&quot; есть всегда</text>
<polygon fill="none" stroke="black" points="247.53,-943.75 247.53,-968.75 538.53,-968.75 538.53,-943.75 247.53,-943.75"/>
<text text-anchor="start" x="259.53" y="-950.45" font-family="Times New Roman,serif" font-size="14.00">стены с правой части каждой клетки (n x m)</text>
<polygon fill="none" stroke="black" points="247.53,-918.75 247.53,-943.75 538.53,-943.75 538.53,-918.75 247.53,-918.75"/>
<text text-anchor="start" x="258.03" y="-925.45" font-family="Times New Roman,serif" font-size="14.00">стены с нижней части каждой клетки (n x m)</text>
<polygon fill="none" stroke="black" points="247.53,-893.75 247.53,-918.75 538.53,-918.75 538.53,-893.75 247.53,-893.75"/>
<text text-anchor="start" x="252.41" y="-900.45" font-family="Times New Roman,serif" font-size="14.00">возможны недостатки: &quot;isolated areas&quot; и &quot;loop&quot;</text>
<polygon fill="none" stroke="black" points="133.53,-802.75 133.53,-893.75 247.53,-893.75 247.53,-802.75 133.53,-802.75"/>
<text text-anchor="start" x="143.28" y="-842.83" font-family="Times New Roman,serif" font-size="14.00">правила обхода</text>
<polygon fill="none" stroke="black" points="247.53,-868.75 247.53,-893.75 538.53,-893.75 538.53,-868.75 247.53,-868.75"/>
<text text-anchor="start" x="315.78" y="-875.45" font-family="Times New Roman,serif" font-size="14.00">соседняя клетка == шаг 1</text>
<polygon fill="none" stroke="black" points="247.53,-843.75 247.53,-868.75 538.53,-868.75 538.53,-843.75 247.53,-843.75"/>
<text text-anchor="start" x="274.91" y="-850.45" font-family="Times New Roman,serif" font-size="14.00">направление={право, лево, верх, вниз}</text>
<polygon fill="none" stroke="black" points="247.53,-802.75 247.53,-843.75 538.53,-843.75 538.53,-802.75 247.53,-802.75"/>
<text text-anchor="start" x="300.78" y="-825.45" font-family="Times New Roman,serif" font-size="14.00">вход и выход задаются парой </text>
<text text-anchor="start" x="310.16" y="-809.7" font-family="Times New Roman,serif" font-size="14.00">начальных (x, y) координат</text>
</g>
<!-- a0 -->
<g id="node2" class="node">
<title>a0</title>
<polygon fill="red" stroke="black" points="390.53,-1062.75 281.53,-1062.75 281.53,-1026.75 390.53,-1026.75 390.53,-1062.75"/>
<text text-anchor="middle" x="336.03" y="-1039.33" font-family="Times New Roman,serif" font-size="14.00">С чем работать</text>
</g>
<!-- descr_3 -->
<g id="node3" class="node">
<title>descr_3</title>
<polygon fill="red" stroke="none" points="545.78,-223.75 126.28,-223.75 126.28,-47.75 545.78,-47.75 545.78,-223.75"/>
<polygon fill="darkgrey" stroke="none" points="135.28,-193 135.28,-218.75 536.78,-218.75 536.78,-193 135.28,-193"/>
<polygon fill="none" stroke="black" points="135.28,-193 135.28,-218.75 536.78,-218.75 536.78,-193 135.28,-193"/>
<text text-anchor="start" x="213.41" y="-200.45" font-family="Times New Roman,serif" font-size="14.00">The user sets the starting and ending points </text>
<polygon fill="darkgrey" stroke="none" points="135.28,-135.75 135.28,-193 536.78,-193 536.78,-135.75 135.28,-135.75"/>
<polygon fill="none" stroke="black" points="135.28,-135.75 135.28,-193 536.78,-193 536.78,-135.75 135.28,-135.75"/>
<text text-anchor="start" x="192.03" y="-174.7" font-family="Times New Roman,serif" font-size="14.00">The route, which is the solution, must be displayed </text>
<text text-anchor="start" x="140.28" y="-158.95" font-family="Times New Roman,serif" font-size="14.00"> &#160;&#160;&#160;with &quot;a line&quot; 1 character thick, passing through the middle of all the </text>
<text text-anchor="start" x="148.53" y="-143.2" font-family="Times New Roman,serif" font-size="14.00"> &#160;&#160;&#160;cells in the maze through which the solution runs &#160;&#160;&#160;&#160;&#160;&#160;&#160;&#160;&#160;&#160;&#160;&#160;&#160;&#160;&#160;&#160;&#160;&#160;&#160;&#160;&#160;&#160;&#160;</text>
<polygon fill="darkgrey" stroke="none" points="135.28,-94.25 135.28,-135.75 536.78,-135.75 536.78,-94.25 135.28,-94.25"/>
<polygon fill="none" stroke="black" points="135.28,-94.25 135.28,-135.75 536.78,-135.75 536.78,-94.25 135.28,-94.25"/>
<text text-anchor="start" x="204.41" y="-117.45" font-family="Times New Roman,serif" font-size="14.00">The color of the solution line must be different </text>
<text text-anchor="start" x="224.28" y="-101.7" font-family="Times New Roman,serif" font-size="14.00">from the color of the walls, and the field</text>
<polygon fill="darkgrey" stroke="none" points="135.28,-52.75 135.28,-94.25 536.78,-94.25 536.78,-52.75 135.28,-52.75"/>
<polygon fill="none" stroke="black" points="135.28,-52.75 135.28,-94.25 536.78,-94.25 536.78,-52.75 135.28,-52.75"/>
<text text-anchor="start" x="219.41" y="-75.95" font-family="Times New Roman,serif" font-size="14.00">Prepare full coverage of the maze solving </text>
<text text-anchor="start" x="274.91" y="-60.2" font-family="Times New Roman,serif" font-size="14.00">module with unit&#45;tests</text>
<polygon fill="none" stroke="black" points="134.28,-51.75 134.28,-219.75 537.78,-219.75 537.78,-51.75 134.28,-51.75"/>
</g>
<!-- solPart3 -->
<g id="node7" class="node">
<title>solPart3</title>
<polygon fill="green" stroke="none" points="1222.53,-243.25 690.53,-243.25 690.53,-160.25 1222.53,-160.25 1222.53,-243.25"/>
<polygon fill="darkgrey" stroke="none" points="698.53,-189.25 698.53,-239.25 964.53,-239.25 964.53,-189.25 698.53,-189.25"/>
<polygon fill="none" stroke="black" points="698.53,-189.25 698.53,-239.25 964.53,-239.25 964.53,-189.25 698.53,-189.25"/>
<text text-anchor="start" x="703.53" y="-208.82" font-family="Times New Roman,serif" font-size="14.00">struct *maze findSolution(const struct *maze)</text>
<g id="a_node7_0"><a xlink:href="https://habr.com/ru/articles/578110/" xlink:title="&lt;TABLE&gt;">
<polygon fill="darkgrey" stroke="none" points="964.53,-214.25 964.53,-239.25 1214.53,-239.25 1214.53,-214.25 964.53,-214.25"/>
<polygon fill="none" stroke="black" points="964.53,-214.25 964.53,-239.25 1214.53,-239.25 1214.53,-214.25 964.53,-214.25"/>
<text text-anchor="start" x="969.53" y="-220.95" font-family="Times New Roman,serif" font-size="14.00">Aлгоритм отрисовки линий Брезенхэма</text>
</a>
</g>
<g id="a_node7_1"><a xlink:href="https://habr.com/ru/companies/otus/articles/748470/" xlink:title="&lt;TABLE&gt;">
<polygon fill="darkgrey" stroke="none" points="964.53,-189.25 964.53,-214.25 1214.53,-214.25 1214.53,-189.25 964.53,-189.25"/>
<polygon fill="none" stroke="black" points="964.53,-189.25 964.53,-214.25 1214.53,-214.25 1214.53,-189.25 964.53,-189.25"/>
<text text-anchor="start" x="1011.91" y="-195.95" font-family="Times New Roman,serif" font-size="14.00">Алгоритм Дейкстры и А*</text>
</a>
</g>
<polygon fill="darkgrey" stroke="none" points="698.53,-164.25 698.53,-189.25 1214.53,-189.25 1214.53,-164.25 698.53,-164.25"/>
<polygon fill="none" stroke="black" points="698.53,-164.25 698.53,-189.25 1214.53,-189.25 1214.53,-164.25 698.53,-164.25"/>
<text text-anchor="start" x="870.28" y="-170.95" font-family="Times New Roman,serif" font-size="14.00">write tests for solution of maze</text>
</g>
<!-- descr_3&#45;&gt;solPart3 -->
<g id="edge17" class="edge">
<title>descr_3:r4&#45;&gt;solPart3:solutionTest</title>
<path fill="none" stroke="black" stroke-width="2" d="M538.03,-73.75C617.47,-73.75 613.91,-165.03 683.63,-175.73"/>
<polygon fill="black" stroke="black" stroke-width="2" points="683.77,-175.74 690.04,-172.19 695.74,-176.62 689.46,-180.17 683.77,-175.74"/>
</g>
<!-- solPart1 -->
<g id="node9" class="node">
<title>solPart1</title>
<polygon fill="green" stroke="none" points="1102.66,-929 810.41,-929 810.41,-494.5 1102.66,-494.5 1102.66,-929"/>
<polygon fill="darkgrey" stroke="none" points="818.41,-883.5 818.41,-925 1094.66,-925 1094.66,-883.5 818.41,-883.5"/>
<polygon fill="none" stroke="black" points="818.41,-883.5 818.41,-925 1094.66,-925 1094.66,-883.5 818.41,-883.5"/>
<text text-anchor="start" x="859.03" y="-906.7" font-family="Times New Roman,serif" font-size="14.00">struct maze {int n_M, m_M, n, m; </text>
<text text-anchor="start" x="859.03" y="-890.95" font-family="Times New Roman,serif" font-size="14.00">int** hBorders; int** vBorders;}</text>
<polygon fill="darkgrey" stroke="none" points="818.41,-857.75 818.41,-883.5 1094.66,-883.5 1094.66,-857.75 818.41,-857.75"/>
<polygon fill="none" stroke="black" points="818.41,-857.75 818.41,-883.5 1094.66,-883.5 1094.66,-857.75 818.41,-857.75"/>
<text text-anchor="start" x="881.91" y="-865.2" font-family="Times New Roman,serif" font-size="14.00">int main(int argv, ch* argc)</text>
<polygon fill="darkgrey" stroke="none" points="818.41,-769 818.41,-857.75 1094.66,-857.75 1094.66,-769 818.41,-769"/>
<polygon fill="none" stroke="black" points="818.41,-769 818.41,-857.75 1094.66,-857.75 1094.66,-769 818.41,-769"/>
<text text-anchor="start" x="848.53" y="-839.45" font-family="Times New Roman,serif" font-size="14.00">int initMaze(ch* path/to/file, n, m):</text>
<text text-anchor="start" x="848.53" y="-823.7" font-family="Times New Roman,serif" font-size="14.00"> &#160;&#160;&#160;int rez=0;</text>
<text text-anchor="start" x="848.53" y="-807.95" font-family="Times New Roman,serif" font-size="14.00"> &#160;&#160;&#160;if (!path/to/file) generateMaze(n, m);</text>
<text text-anchor="start" x="848.53" y="-792.2" font-family="Times New Roman,serif" font-size="14.00"> &#160;&#160;&#160;else (loadFile(path/to/file) = rez);</text>
<text text-anchor="start" x="848.53" y="-776.45" font-family="Times New Roman,serif" font-size="14.00"> &#160;&#160;&#160;return rez; &#160;&#160;&#160;&#160;&#160;&#160;&#160;&#160;&#160;&#160;&#160;&#160;&#160;&#160;&#160;&#160;&#160;&#160;&#160;&#160;&#160;&#160;&#160;</text>
<polygon fill="darkgrey" stroke="none" points="818.41,-727.5 818.41,-769 1094.66,-769 1094.66,-727.5 818.41,-727.5"/>
<polygon fill="none" stroke="black" points="818.41,-727.5 818.41,-769 1094.66,-769 1094.66,-727.5 818.41,-727.5"/>
<text text-anchor="start" x="879.66" y="-750.7" font-family="Times New Roman,serif" font-size="14.00">int loadFile(ch* path/to/file)</text>
<text text-anchor="start" x="879.66" y="-734.95" font-family="Times New Roman,serif" font-size="14.00"> &#160;&#160;&#160;&#160;&#160;&#160;&#160;# load in &#39;r&#39; mode</text>
<polygon fill="darkgrey" stroke="none" points="818.41,-686 818.41,-727.5 1094.66,-727.5 1094.66,-686 818.41,-686"/>
<polygon fill="none" stroke="black" points="818.41,-686 818.41,-727.5 1094.66,-727.5 1094.66,-686 818.41,-686"/>
<text text-anchor="start" x="847.41" y="-709.2" font-family="Times New Roman,serif" font-size="14.00">struct *maze generateMaze(int n, int m)</text>
<text text-anchor="start" x="847.41" y="-693.45" font-family="Times New Roman,serif" font-size="14.00"> &#160;&#160;&#160;&#160;&#160;&#160;&#160;# load in &#39;r&#39; mode</text>
<polygon fill="darkgrey" stroke="none" points="818.41,-613 818.41,-686 1094.66,-686 1094.66,-613 818.41,-613"/>
<polygon fill="none" stroke="black" points="818.41,-613 818.41,-686 1094.66,-686 1094.66,-613 818.41,-613"/>
<text text-anchor="start" x="850.78" y="-667.7" font-family="Times New Roman,serif" font-size="14.00">int checkSize(const struct *maze):</text>
<text text-anchor="start" x="850.78" y="-651.95" font-family="Times New Roman,serif" font-size="14.00"> &#160;&#160;&#160;if (*maze.n &gt; *maze.n_M || </text>
<text text-anchor="start" x="850.78" y="-636.2" font-family="Times New Roman,serif" font-size="14.00"> &#160;&#160;&#160;&#160;&#160;&#160;&#160;&#160;*maze.m &gt; *maze.m_M):</text>
<text text-anchor="start" x="850.78" y="-620.45" font-family="Times New Roman,serif" font-size="14.00"> &#160;&#160;&#160;&#160;&#160;&#160;&#160;&#160;return ERROR; &#160;&#160;&#160;&#160;&#160;&#160;&#160;&#160;&#160;&#160;&#160;&#160;&#160;&#160;&#160;&#160;&#160;&#160;&#160;&#160;&#160;&#160;&#160;</text>
<g id="a_node9_2"><a xlink:href="https://clubmate.fi/using-pseudographics-in-blogposts-drawing-ascii-diagrams-and-boxes" xlink:title="&lt;TABLE&gt;">
<polygon fill="darkgrey" stroke="none" points="818.41,-524.25 818.41,-613 1094.66,-613 1094.66,-524.25 818.41,-524.25"/>
<polygon fill="none" stroke="black" points="818.41,-524.25 818.41,-613 1094.66,-613 1094.66,-524.25 818.41,-524.25"/>
<text text-anchor="start" x="823.41" y="-594.7" font-family="Times New Roman,serif" font-size="14.00">int render4090RTX(const struct *maze,</text>
<text text-anchor="start" x="823.41" y="-578.95" font-family="Times New Roman,serif" font-size="14.00"> &#160;&#160;&#160;const float* pathC[3],</text>
<text text-anchor="start" x="823.41" y="-563.2" font-family="Times New Roman,serif" font-size="14.00"> &#160;&#160;&#160;const float* edgeC[3])</text>
<text text-anchor="start" x="823.41" y="-547.45" font-family="Times New Roman,serif" font-size="14.00"> &#160;&#160;&#160;const float* fieldC[3])</text>
<text text-anchor="start" x="823.41" y="-531.7" font-family="Times New Roman,serif" font-size="14.00"> &#160;&#160;&#160;#МБ [|&#45;\] &#45; набор символов &#160;&#160;&#160;&#160;&#160;&#160;&#160;&#160;&#160;&#160;&#160;&#160;&#160;&#160;&#160;&#160;&#160;&#160;&#160;&#160;&#160;&#160;&#160;</text>
</a>
</g>
<polygon fill="darkgrey" stroke="none" points="818.41,-498.5 818.41,-524.25 1094.66,-524.25 1094.66,-498.5 818.41,-498.5"/>
<polygon fill="none" stroke="black" points="818.41,-498.5 818.41,-524.25 1094.66,-524.25 1094.66,-498.5 818.41,-498.5"/>
<text text-anchor="start" x="904.03" y="-505.95" font-family="Times New Roman,serif" font-size="14.00">не понял условие</text>
</g>
<!-- descr_3&#45;&gt;solPart1 -->
<g id="edge14" class="edge">
<title>descr_3:r1&#45;&gt;solPart1:gui</title>
<path fill="none" stroke="black" stroke-width="2" d="M538.03,-205.75C693.64,-205.75 659.47,-832.36 803.95,-869.07"/>
<polygon fill="black" stroke="black" stroke-width="2" points="803.84,-869.06 810.28,-865.82 815.74,-870.53 809.3,-873.76 803.84,-869.06"/>
</g>
<!-- descr_3&#45;&gt;solPart1 -->
<g id="edge15" class="edge">
<title>descr_3:r2&#45;&gt;solPart1:renderMaze</title>
<path fill="none" stroke="black" stroke-width="2" d="M538.03,-164.75C690.61,-164.75 574.9,-364.19 674.53,-479.75 720.26,-532.79 740.07,-564.48 803.73,-568.35"/>
<polygon fill="black" stroke="black" stroke-width="2" points="803.74,-568.35 809.85,-564.53 815.73,-568.7 809.62,-572.52 803.74,-568.35"/>
</g>
<!-- descr_3&#45;&gt;solPart1 -->
<g id="edge16" class="edge">
<title>descr_3:r3&#45;&gt;solPart1:renderMaze</title>
<path fill="none" stroke="black" stroke-width="2" d="M538.03,-114.75C711.23,-114.75 564.83,-345.73 674.53,-479.75 718.9,-533.94 739.89,-564.63 803.71,-568.36"/>
<polygon fill="black" stroke="black" stroke-width="2" points="803.74,-568.36 809.85,-564.53 815.73,-568.7 809.62,-572.53 803.74,-568.36"/>
</g>
<!-- descr_2 -->
<g id="node4" class="node">
<title>descr_2</title>
<polygon fill="red" stroke="none" points="512.03,-541.25 160.03,-541.25 160.03,-272.25 512.03,-272.25 512.03,-541.25"/>
<polygon fill="yellow" stroke="none" points="169.03,-494.75 169.03,-536.25 503.03,-536.25 503.03,-494.75 169.03,-494.75"/>
<polygon fill="none" stroke="black" points="169.03,-494.75 169.03,-536.25 503.03,-536.25 503.03,-494.75 169.03,-494.75"/>
<text text-anchor="start" x="177.41" y="-517.95" font-family="Times New Roman,serif" font-size="14.00">A maze is considered perfect if it is possible to get from </text>
<text text-anchor="start" x="200.66" y="-502.2" font-family="Times New Roman,serif" font-size="14.00">each point to any other point in exactly one way.</text>
<polygon fill="darkgrey" stroke="none" points="169.03,-469 169.03,-494.75 503.03,-494.75 503.03,-469 169.03,-469"/>
<polygon fill="none" stroke="black" points="169.03,-469 169.03,-494.75 503.03,-494.75 503.03,-469 169.03,-469"/>
<text text-anchor="start" x="174.03" y="-476.45" font-family="Times New Roman,serif" font-size="14.00">You must generate the maze according to Eller&#39;s algorithm</text>
<polygon fill="darkgrey" stroke="none" points="169.03,-443.25 169.03,-469 503.03,-469 503.03,-443.25 169.03,-443.25"/>
<polygon fill="none" stroke="black" points="169.03,-443.25 169.03,-469 503.03,-469 503.03,-443.25 169.03,-443.25"/>
<text text-anchor="start" x="181.91" y="-450.7" font-family="Times New Roman,serif" font-size="14.00">The generated maze must not have isolations and loops</text>
<polygon fill="darkgrey" stroke="none" points="169.03,-401.75 169.03,-443.25 503.03,-443.25 503.03,-401.75 169.03,-401.75"/>
<polygon fill="none" stroke="black" points="169.03,-401.75 169.03,-443.25 503.03,-443.25 503.03,-401.75 169.03,-401.75"/>
<text text-anchor="start" x="219.78" y="-424.95" font-family="Times New Roman,serif" font-size="14.00">Prepare full coverage of the perfect maze </text>
<text text-anchor="start" x="244.53" y="-409.2" font-family="Times New Roman,serif" font-size="14.00">generation module with unit&#45;tests</text>
<polygon fill="darkgrey" stroke="none" points="169.03,-360.25 169.03,-401.75 503.03,-401.75 503.03,-360.25 169.03,-360.25"/>
<polygon fill="none" stroke="black" points="169.03,-360.25 169.03,-401.75 503.03,-401.75 503.03,-360.25 169.03,-360.25"/>
<text text-anchor="start" x="190.16" y="-383.45" font-family="Times New Roman,serif" font-size="14.00">The user enters only the dimensionality of the maze: </text>
<text text-anchor="start" x="243.78" y="-367.7" font-family="Times New Roman,serif" font-size="14.00">the number of rows and columns</text>
<polygon fill="darkgrey" stroke="none" points="169.03,-318.75 169.03,-360.25 503.03,-360.25 503.03,-318.75 169.03,-318.75"/>
<polygon fill="none" stroke="black" points="169.03,-318.75 169.03,-360.25 503.03,-360.25 503.03,-318.75 169.03,-318.75"/>
<text text-anchor="start" x="236.66" y="-341.95" font-family="Times New Roman,serif" font-size="14.00">The generated maze must be saved </text>
<text text-anchor="start" x="242.66" y="-326.2" font-family="Times New Roman,serif" font-size="14.00">in the file format described above</text>
<polygon fill="darkgrey" stroke="none" points="169.03,-277.25 169.03,-318.75 503.03,-318.75 503.03,-277.25 169.03,-277.25"/>
<polygon fill="none" stroke="black" points="169.03,-277.25 169.03,-318.75 503.03,-318.75 503.03,-277.25 169.03,-277.25"/>
<text text-anchor="start" x="227.28" y="-300.45" font-family="Times New Roman,serif" font-size="14.00">The created maze should be displayed </text>
<text text-anchor="start" x="221.66" y="-284.7" font-family="Times New Roman,serif" font-size="14.00">on the screen as specified in the first part</text>
<polygon fill="none" stroke="black" points="168.03,-276.25 168.03,-537.25 504.03,-537.25 504.03,-276.25 168.03,-276.25"/>
</g>
<!-- descr_2&#45;&gt;a -->
<g id="edge22" class="edge">
<title>descr_2:w&#45;&gt;a:w</title>
<path fill="none" stroke="black" stroke-width="2" d="M168.03,-455.75C8.78,-455.75 -42.47,-652.49 38.28,-789.75 89.69,-877.12 136.5,-903.41 233.07,-905.6"/>
<polygon fill="black" stroke="black" stroke-width="2" points="233.23,-905.6 239.27,-901.67 245.23,-905.73 239.19,-909.66 233.23,-905.6"/>
</g>
<!-- descr_1 -->
<g id="node5" class="node">
<title>descr_1</title>
<polygon fill="red" stroke="none" points="523.66,-758.88 148.41,-758.88 148.41,-588.62 523.66,-588.62 523.66,-758.88"/>
<polygon fill="darkgrey" stroke="none" points="157.41,-728.12 157.41,-753.88 514.66,-753.88 514.66,-728.12 157.41,-728.12"/>
<polygon fill="none" stroke="black" points="157.41,-728.12 157.41,-753.88 514.66,-753.88 514.66,-728.12 157.41,-728.12"/>
<text text-anchor="start" x="162.41" y="-735.58" font-family="Times New Roman,serif" font-size="14.00">The program should implement a console&#45;based user interface</text>
<polygon fill="darkgrey" stroke="none" points="157.41,-702.38 157.41,-728.12 514.66,-728.12 514.66,-702.38 157.41,-702.38"/>
<polygon fill="none" stroke="black" points="157.41,-702.38 157.41,-728.12 514.66,-728.12 514.66,-702.38 157.41,-702.38"/>
<text text-anchor="start" x="182.28" y="-709.83" font-family="Times New Roman,serif" font-size="14.00">The program has an option to load the maze from a file</text>
<polygon fill="darkgrey" stroke="none" points="157.41,-676.62 157.41,-702.38 514.66,-702.38 514.66,-676.62 157.41,-676.62"/>
<polygon fill="none" stroke="black" points="157.41,-676.62 157.41,-702.38 514.66,-702.38 514.66,-676.62 157.41,-676.62"/>
<text text-anchor="start" x="236.66" y="-684.08" font-family="Times New Roman,serif" font-size="14.00">Maximum size of the maze is 50x50</text>
<polygon fill="darkgrey" stroke="none" points="157.41,-635.12 157.41,-676.62 514.66,-676.62 514.66,-635.12 157.41,-635.12"/>
<polygon fill="none" stroke="black" points="157.41,-635.12 157.41,-676.62 514.66,-676.62 514.66,-635.12 157.41,-635.12"/>
<text text-anchor="start" x="190.53" y="-658.33" font-family="Times New Roman,serif" font-size="14.00">The loaded maze must be rendered on the screen in </text>
<text text-anchor="start" x="249.03" y="-642.58" font-family="Times New Roman,serif" font-size="14.00">the console in pseudo&#45;graphics</text>
<polygon fill="darkgrey" stroke="none" points="157.41,-593.62 157.41,-635.12 514.66,-635.12 514.66,-593.62 157.41,-593.62"/>
<polygon fill="none" stroke="black" points="157.41,-593.62 157.41,-635.12 514.66,-635.12 514.66,-593.62 157.41,-593.62"/>
<text text-anchor="start" x="173.66" y="-616.83" font-family="Times New Roman,serif" font-size="14.00">The size of the maze cells themselves is calculated so that </text>
<text text-anchor="start" x="208.91" y="-601.08" font-family="Times New Roman,serif" font-size="14.00">the maze occupies the entire field allotted to it</text>
<polygon fill="none" stroke="black" points="156.41,-592.62 156.41,-754.88 515.66,-754.88 515.66,-592.62 156.41,-592.62"/>
</g>
<!-- descr_2&#45;&gt;descr_1 -->
<g id="edge23" class="edge">
<title>descr_2:w&#45;&gt;descr_1:w</title>
<path fill="none" stroke="black" stroke-width="2" d="M146.36,-647.25C118.67,-593.04 131.89,-297.75 168.03,-297.75"/>
<polygon fill="black" stroke="black" stroke-width="2" points="145.66,-646.64 152.81,-647.59 154.68,-654.56 147.53,-653.6 145.66,-646.64"/>
</g>
<!-- solPart2 -->
<g id="node8" class="node">
<title>solPart2</title>
<polygon fill="green" stroke="none" points="1215.03,-446.75 698.03,-446.75 698.03,-290.75 1215.03,-290.75 1215.03,-446.75"/>
<g id="a_node8_3"><a xlink:href="https://habr.com/ru/articles/176671/" xlink:title="&lt;TABLE&gt;">
<polygon fill="darkgrey" stroke="none" points="706.03,-417.75 706.03,-442.75 904.03,-442.75 904.03,-417.75 706.03,-417.75"/>
<polygon fill="none" stroke="black" points="706.03,-417.75 706.03,-442.75 904.03,-442.75 904.03,-417.75 706.03,-417.75"/>
<text text-anchor="start" x="779.91" y="-424.45" font-family="Times New Roman,serif" font-size="14.00">habr info</text>
</a>
</g>
<g id="a_node8_4"><a xlink:href="https://tproger.ru/articles/maze-generators" xlink:title="&lt;TABLE&gt;">
<polygon fill="darkgrey" stroke="none" points="904.03,-417.75 904.03,-442.75 1049.03,-442.75 1049.03,-417.75 904.03,-417.75"/>
<polygon fill="none" stroke="black" points="904.03,-417.75 904.03,-442.75 1049.03,-442.75 1049.03,-417.75 904.03,-417.75"/>
<text text-anchor="start" x="943.53" y="-424.45" font-family="Times New Roman,serif" font-size="14.00">tproger info</text>
</a>
</g>
<g id="a_node8_5"><a xlink:href="https://www.educative.io/courses/mazes-for-programmers/understanding-ellers-algorithm" xlink:title="&lt;TABLE&gt;">
<polygon fill="darkgrey" stroke="none" points="1049.03,-417.75 1049.03,-442.75 1207.03,-442.75 1207.03,-417.75 1049.03,-417.75"/>
<polygon fill="none" stroke="black" points="1049.03,-417.75 1049.03,-442.75 1207.03,-442.75 1207.03,-417.75 1049.03,-417.75"/>
<text text-anchor="start" x="1089.03" y="-424.45" font-family="Times New Roman,serif" font-size="14.00">educative info</text>
</a>
</g>
<polygon fill="darkgrey" stroke="none" points="706.03,-344.75 706.03,-417.75 1207.03,-417.75 1207.03,-344.75 706.03,-344.75"/>
<polygon fill="none" stroke="black" points="706.03,-344.75 706.03,-417.75 1207.03,-417.75 1207.03,-344.75 706.03,-344.75"/>
<text text-anchor="start" x="711.03" y="-399.45" font-family="Times New Roman,serif" font-size="14.00">int checkMaze(const struct *maze)</text>
<text text-anchor="start" x="711.03" y="-383.7" font-family="Times New Roman,serif" font-size="14.00"> &#160;&#160;&#160;&#160;&#160;&#160;&#160;&#160;# тут использовать маску для &quot;loop&quot; </text>
<text text-anchor="start" x="711.03" y="-367.95" font-family="Times New Roman,serif" font-size="14.00"> &#160;&#160;&#160;&#160;&#160;&#160;&#160;&#160;# для &quot;isolated areas&quot; мб найти клетки с тремя &#160;</text>
<text text-anchor="start" x="711.03" y="-352.2" font-family="Times New Roman,serif" font-size="14.00"> &#160;&#160;&#160;&#160;&#160;&#160;&#160;&#160;# границами и как&#45;то найти, что область замкнута &#160;&#160;&#160;&#160;&#160;&#160;&#160;&#160;&#160;&#160;&#160;&#160;&#160;&#160;&#160;&#160;&#160;&#160;&#160;&#160;&#160;&#160;&#160;&#160;&#160;&#160;&#160;&#160;&#160;&#160;&#160;&#160;&#160;&#160;&#160;&#160;&#160;&#160;&#160;&#160;</text>
<polygon fill="darkgrey" stroke="none" points="706.03,-319.75 706.03,-344.75 1207.03,-344.75 1207.03,-319.75 706.03,-319.75"/>
<polygon fill="none" stroke="black" points="706.03,-319.75 706.03,-344.75 1207.03,-344.75 1207.03,-319.75 706.03,-319.75"/>
<text text-anchor="start" x="860.53" y="-326.45" font-family="Times New Roman,serif" font-size="14.00">write tests for generationg of maze</text>
<polygon fill="darkgrey" stroke="none" points="706.03,-294.75 706.03,-319.75 1207.03,-319.75 1207.03,-294.75 706.03,-294.75"/>
<polygon fill="none" stroke="black" points="706.03,-294.75 706.03,-319.75 1207.03,-319.75 1207.03,-294.75 706.03,-294.75"/>
<text text-anchor="start" x="817.78" y="-301.45" font-family="Times New Roman,serif" font-size="14.00">int mazeSave(ch* path/to/file, const struct *maze)</text>
</g>
<!-- descr_2&#45;&gt;solPart2 -->
<g id="edge20" class="edge">
<title>descr_2:r6&#45;&gt;solPart2:mazeSave</title>
<path fill="none" stroke="black" stroke-width="2" d="M504.03,-339.75C589.58,-339.75 611.93,-310.14 690.81,-307.02"/>
<polygon fill="black" stroke="black" stroke-width="2" points="690.73,-307.02 696.65,-302.9 702.73,-306.78 696.81,-310.9 690.73,-307.02"/>
</g>
<!-- descr_2&#45;&gt;solPart2 -->
<g id="edge21" class="edge">
<title>descr_2:e&#45;&gt;solPart2:w</title>
<path fill="none" stroke="black" stroke-width="2" d="M504.03,-481.75C591.13,-481.75 610.62,-435.99 690.59,-431.16"/>
<polygon fill="black" stroke="black" stroke-width="2" points="690.74,-431.16 696.62,-426.98 702.73,-430.8 696.85,-434.98 690.74,-431.16"/>
</g>
<!-- descr_2&#45;&gt;solPart2 -->
<g id="edge24" class="edge">
<title>descr_2:e&#45;&gt;solPart2:w</title>
<path fill="none" stroke="black" stroke-width="2" d="M504.03,-455.75C594.1,-455.75 608.23,-389.21 690.44,-382.32"/>
<polygon fill="black" stroke="black" stroke-width="2" points="690.74,-382.31 696.57,-378.07 702.73,-381.82 696.9,-386.06 690.74,-382.31"/>
</g>
<!-- descr_2&#45;&gt;solPart2 -->
<g id="edge25" class="edge">
<title>descr_2:e&#45;&gt;solPart2:w</title>
<path fill="none" stroke="black" stroke-width="2" d="M504.03,-422.75C597.02,-422.75 605.97,-340.59 690.58,-332.4"/>
<polygon fill="black" stroke="black" stroke-width="2" points="690.75,-332.4 696.55,-328.12 702.73,-331.83 696.93,-336.11 690.75,-332.4"/>
</g>
<!-- descr_2&#45;&gt;solPart1 -->
<g id="edge19" class="edge">
<title>descr_2:r5&#45;&gt;solPart1:initMaze</title>
<path fill="none" stroke="black" stroke-width="2" d="M504.03,-380.75C736.87,-380.75 586.26,-796.59 803.74,-813.24"/>
<polygon fill="black" stroke="black" stroke-width="2" points="803.74,-813.24 809.89,-809.46 815.73,-813.68 809.59,-817.46 803.74,-813.24"/>
</g>
<!-- descr_1&#45;&gt;solPart1 -->
<g id="edge18" class="edge">
<title>descr_1:r1&#45;&gt;solPart1:gui</title>
<path fill="none" stroke="black" stroke-width="2" d="M516.03,-740.75C657.11,-740.75 670.82,-862.26 803.44,-870.33"/>
<polygon fill="black" stroke="black" stroke-width="2" points="803.74,-870.34 809.85,-866.52 815.73,-870.7 809.61,-874.52 803.74,-870.34"/>
</g>
<!-- descr_1&#45;&gt;solPart1 -->
<g id="edge26" class="edge">
<title>descr_1:r2&#45;&gt;solPart1:loadFile</title>
<path fill="none" stroke="black" stroke-width="2" d="M516.03,-715.75C646.09,-715.75 680.36,-746.47 803.69,-748.63"/>
<polygon fill="black" stroke="black" stroke-width="2" points="803.73,-748.63 809.77,-744.68 815.73,-748.73 809.7,-752.68 803.73,-748.63"/>
</g>
<!-- descr_1&#45;&gt;solPart1 -->
<g id="edge27" class="edge">
<title>descr_1:r3&#45;&gt;solPart1:checkSize</title>
<path fill="none" stroke="black" stroke-width="2" d="M516.03,-689.75C646.46,-689.75 680.04,-652.51 803.65,-649.89"/>
<polygon fill="black" stroke="black" stroke-width="2" points="803.73,-649.89 809.69,-645.83 815.73,-649.77 809.77,-653.83 803.73,-649.89"/>
</g>
<!-- descr_1&#45;&gt;solPart1 -->
<g id="edge28" class="edge">
<title>descr_1:r4&#45;&gt;solPart1:renderMaze</title>
<path fill="none" stroke="black" stroke-width="2" d="M516.03,-655.75C650.73,-655.75 676.39,-574.6 803.63,-569.05"/>
<polygon fill="black" stroke="black" stroke-width="2" points="803.73,-569.05 809.65,-564.92 815.73,-568.79 809.82,-572.92 803.73,-569.05"/>
</g>
<!-- descr_1&#45;&gt;solPart1 -->
<g id="edge29" class="edge">
<title>descr_1:r5&#45;&gt;solPart1:wtf</title>
<path fill="none" stroke="black" stroke-width="2" d="M516.03,-614.75C652.8,-614.75 674.54,-518.67 803.44,-512.1"/>
<polygon fill="black" stroke="black" stroke-width="2" points="803.74,-512.1 809.63,-507.95 815.73,-511.8 809.83,-515.94 803.74,-512.1"/>
</g>
<!-- b0 -->
<g id="node6" class="node">
<title>b0</title>
<polygon fill="green" stroke="black" points="1049.28,-1004.75 863.78,-1004.75 863.78,-968.75 1049.28,-968.75 1049.28,-1004.75"/>
<text text-anchor="middle" x="956.53" y="-981.33" font-family="Times New Roman,serif" font-size="14.00">Что тут может происходить</text>
</g>
<!-- solPart3&#45;&gt;solPart1 -->
<g id="edge13" class="edge">
<title>solPart3:se&#45;&gt;solPart1:e</title>
<path fill="none" stroke="black" stroke-width="2" d="M1215.53,-214.75C1421.84,-8.44 1392.9,-843.96 1109.23,-870.12"/>
<polygon fill="black" stroke="black" stroke-width="2" points="1109.32,-870.12 1103.51,-874.39 1097.33,-870.67 1103.15,-866.4 1109.32,-870.12"/>
</g>
<!-- solPart2&#45;&gt;solPart1 -->
<g id="edge10" class="edge">
<title>solPart2:e&#45;&gt;solPart1:e</title>
<path fill="none" stroke="black" stroke-width="2" d="M1106.97,-864.92C1165.16,-809.75 1260.7,-381.75 1208.53,-381.75"/>
<polygon fill="black" stroke="black" stroke-width="2" points="1107.83,-864.48 1104.3,-870.77 1097.14,-869.93 1100.67,-863.64 1107.83,-864.48"/>
</g>
<!-- solPart2&#45;&gt;solPart1 -->
<g id="edge11" class="edge">
<title>solPart2:e&#45;&gt;solPart1:e</title>
<path fill="none" stroke="black" stroke-width="2" d="M1107.23,-865.17C1172.08,-806.59 1268.7,-306.75 1208.53,-306.75"/>
<polygon fill="black" stroke="black" stroke-width="2" points="1107.99,-864.8 1104.3,-871 1097.16,-869.97 1100.85,-863.78 1107.99,-864.8"/>
</g>
<!-- solPart1&#45;&gt;solPart1 -->
<g id="edge5" class="edge">
<title>solPart1:e&#45;&gt;solPart1:e</title>
<path fill="none" stroke="black" stroke-width="2" d="M1094.53,-813.75C1180.39,-811.75 1335.85,-811.75 1335.85,-842.25 1335.85,-871.17 1196.06,-872.67 1108.39,-871.04"/>
<polygon fill="black" stroke="black" stroke-width="2" points="1108.33,-871.04 1102.25,-874.91 1096.34,-870.79 1102.42,-866.91 1108.33,-871.04"/>
</g>
<!-- solPart1&#45;&gt;solPart1 -->
<g id="edge6" class="edge">
<title>solPart1:e&#45;&gt;solPart1:e</title>
<path fill="none" stroke="black" stroke-width="2" d="M1094.53,-649.75C1180.39,-647.75 1335.85,-647.75 1335.85,-760.25 1335.85,-866.93 1196.06,-872.45 1108.39,-871.03"/>
<polygon fill="black" stroke="black" stroke-width="2" points="1108.33,-871.03 1102.25,-874.91 1096.34,-870.79 1102.42,-866.91 1108.33,-871.03"/>
</g>
<!-- solPart1&#45;&gt;solPart1 -->
<g id="edge7" class="edge">
<title>solPart1:e&#45;&gt;solPart1:e</title>
<path fill="none" stroke="black" stroke-width="2" d="M1094.53,-511.75C1180.39,-509.75 1335.85,-509.75 1335.85,-691.25 1335.85,-863.36 1196.06,-872.26 1108.39,-871.02"/>
<polygon fill="black" stroke="black" stroke-width="2" points="1108.33,-871.02 1102.26,-874.9 1096.34,-870.79 1102.41,-866.9 1108.33,-871.02"/>
</g>
<!-- solPart1&#45;&gt;solPart1 -->
<g id="edge8" class="edge">
<title>solPart1:e&#45;&gt;solPart1:e</title>
<path fill="none" stroke="blue" stroke-width="2" d="M1094.53,-748.75C1180.39,-746.75 1335.85,-746.75 1335.85,-781.25 1335.85,-813.96 1196.06,-815.66 1108.39,-814.04"/>
<polygon fill="blue" stroke="blue" stroke-width="2" points="1108.33,-814.04 1102.25,-817.91 1096.34,-813.79 1102.42,-809.91 1108.33,-814.04"/>
</g>
<!-- solPart1&#45;&gt;solPart1 -->
<g id="edge9" class="edge">
<title>solPart1:e&#45;&gt;solPart1:e</title>
<path fill="none" stroke="blue" stroke-width="2" d="M1094.53,-706.75C1180.39,-704.75 1335.85,-704.75 1335.85,-760.25 1335.85,-812.88 1196.06,-815.6 1108.39,-814.04"/>
<polygon fill="blue" stroke="blue" stroke-width="2" points="1108.33,-814.04 1102.25,-817.91 1096.34,-813.79 1102.42,-809.91 1108.33,-814.04"/>
</g>
<!-- solPart1&#45;&gt;solPart1 -->
<g id="edge12" class="edge">
<title>solPart1:e&#45;&gt;solPart1:e</title>
<path fill="none" stroke="black" stroke-width="2" d="M1094.53,-568.75C1180.39,-566.75 1335.85,-566.75 1335.85,-719.75 1335.85,-864.83 1196.06,-872.34 1108.39,-871.02"/>
<polygon fill="black" stroke="black" stroke-width="2" points="1108.33,-871.02 1102.26,-874.9 1096.34,-870.79 1102.41,-866.9 1108.33,-871.02"/>
</g>
<!-- c0 -->
<g id="node10" class="node">
<title>c0</title>
<polygon fill="grey" stroke="black" points="1460.16,-1062.75 1385.66,-1062.75 1385.66,-1026.75 1460.16,-1026.75 1460.16,-1062.75"/>
<text text-anchor="middle" x="1422.91" y="-1039.33" font-family="Times New Roman,serif" font-size="14.00">Результат</text>
</g>
<!-- c1 -->
<g id="node11" class="node">
<title>c1</title>
<polygon fill="grey" stroke="black" points="1479.28,-1022.75 1366.53,-1022.75 1366.53,-986.75 1479.28,-986.75 1479.28,-1022.75"/>
<text text-anchor="middle" x="1422.91" y="-999.33" font-family="Times New Roman,serif" font-size="14.00">Проект на 100%</text>
</g>
<!-- c1&#45;&gt;c0 -->
<!-- 0 -->
<g id="node12" class="node">
<title>0</title>
<polygon fill="grey" stroke="black" points="364.66,-1138.75 307.41,-1138.75 307.41,-1102.75 364.66,-1102.75 364.66,-1138.75"/>
<text text-anchor="middle" x="336.03" y="-1115.33" font-family="Times New Roman,serif" font-size="14.00">INPUT</text>
</g>
<!-- 1 -->
<g id="node13" class="node">
<title>1</title>
<polygon fill="orange" stroke="black" points="987.78,-1138.75 925.28,-1138.75 925.28,-1102.75 987.78,-1102.75 987.78,-1138.75"/>
<text text-anchor="middle" x="956.53" y="-1115.33" font-family="Times New Roman,serif" font-size="14.00">MAGIC</text>
</g>
<!-- 0&#45;&gt;1 -->
<g id="edge1" class="edge">
<title>0&#45;&gt;1</title>
<path fill="none" stroke="black" d="M364.81,-1120.75C463.21,-1120.75 795.61,-1120.75 913.57,-1120.75"/>
<polygon fill="black" stroke="black" points="913.44,-1124.25 923.44,-1120.75 913.44,-1117.25 913.44,-1124.25"/>
</g>
<!-- 2 -->
<g id="node14" class="node">
<title>2</title>
<polygon fill="red" stroke="black" points="1459.03,-1138.75 1386.78,-1138.75 1386.78,-1102.75 1459.03,-1102.75 1459.03,-1138.75"/>
<text text-anchor="middle" x="1422.91" y="-1115.33" font-family="Times New Roman,serif" font-size="14.00">OUTPUT</text>
</g>
<!-- 1&#45;&gt;2 -->
<g id="edge2" class="edge">
<title>1&#45;&gt;2</title>
<path fill="none" stroke="black" d="M988,-1120.75C1067.23,-1120.75 1280.1,-1120.75 1375.06,-1120.75"/>
<polygon fill="black" stroke="black" points="1374.8,-1124.25 1384.8,-1120.75 1374.8,-1117.25 1374.8,-1124.25"/>
</g>
<!-- 2&#45;&gt;c1 -->
</g>
</svg>
